<?xml version="1.0" encoding="utf-8"?>
<!-- Generator: Adobe Illustrator 24.1.0, SVG Export Plug-In . SVG Version: 6.00 Build 0)  -->
<svg version="1.1" id="Ebene_1" xmlns="http://www.w3.org/2000/svg" xmlns:xlink="http://www.w3.org/1999/xlink" x="0px" y="0px"
	 viewBox="0 0 24 24" style="enable-background:new 0 0 24 24;" xml:space="preserve">
<style type="text/css">
	.st0{fill:#FFFFFF;}
</style>
<path class="st0" d="M19,6.7c0,4.2-3.8,7-3.8,10.3h-2c0-2.1,1-3.8,2-5.5C16.1,9.9,17,8.4,17,6.7C17,3.6,14.5,2,12,2
	C9.5,2,7,3.6,7,6.7c0,1.7,0.9,3.2,1.8,4.8c1,1.7,2,3.4,2,5.5h-2C8.8,13.7,5,10.9,5,6.7C5,2.4,8.5,0,12,0C15.5,0,19,2.4,19,6.7z
	 M15,18.5c0,0.3-0.2,0.5-0.5,0.5h-5C9.2,19,9,18.8,9,18.5S9.2,18,9.5,18h5C14.8,18,15,18.2,15,18.5z M15,20.5c0,0.3-0.2,0.5-0.5,0.5
	h-5C9.2,21,9,20.8,9,20.5S9.2,20,9.5,20h5C14.8,20,15,20.2,15,20.5z M13.3,23.7c-0.2,0.2-0.5,0.3-0.8,0.3h-1.1
	c-0.3,0-0.6-0.1-0.8-0.3L9.2,22h5.5L13.3,23.7z M12.4,9h-0.7V8h0.7V9z M13.3,9h-0.4V8h0.8L13.3,9z M10.8,9l-0.4-1h0.8v1H10.8z M15,8
	c-1.6,3.7-2.4,5-2.4,9h-1.2c0-3.9-0.8-5.3-2.4-9h0.8c1.2,2.9,2,4,2.2,7c0.2-3,1.1-4.2,2.2-7H15z"/>
</svg>
