<?xml version="1.0" encoding="utf-8"?>
<!-- Generator: Adobe Illustrator 24.1.0, SVG Export Plug-In . SVG Version: 6.00 Build 0)  -->
<svg version="1.1" xmlns="http://www.w3.org/2000/svg" xmlns:xlink="http://www.w3.org/1999/xlink" x="0px" y="0px"
	 viewBox="0 0 60.1 60.8" style="enable-background:new 0 0 60.1 60.8;" xml:space="preserve">
<style type="text/css">
	.st0{display:none;}
	.st1{display:inline;fill:#0A0A0A;stroke:#000000;stroke-miterlimit:10;}
	.st2{fill:none;}
	.st3{fill:none;stroke:#FFFFFF;stroke-width:3;stroke-linejoin:round;}
	.st4{fill:none;stroke:#FFFFFF;stroke-width:2;stroke-linecap:round;stroke-linejoin:round;}
	.st5{fill:none;stroke:#FFFFFF;stroke-width:2;stroke-linejoin:round;}
	.st6{fill:none;stroke:#FFFFFF;stroke-width:4;stroke-linecap:round;stroke-linejoin:round;}
	.st7{fill-rule:evenodd;clip-rule:evenodd;fill:#FFFFFF;stroke:#FFFFFF;stroke-width:2.7313;stroke-linejoin:round;}
</style>
<g id="Ebene_2" class="st0">
	<rect y="1.3" class="st1" width="58.4" height="58.4"/>
</g>
<g id="svg4160" inkscape:version="0.92.2 5c3e80d, 2017-08-06" sodipodi:docname="retract.svg" xmlns:cc="http://creativecommons.org/ns#" xmlns:dc="http://purl.org/dc/elements/1.1/" xmlns:inkscape="http://www.inkscape.org/namespaces/inkscape" xmlns:rdf="http://www.w3.org/1999/02/22-rdf-syntax-ns#" xmlns:sodipodi="http://sodipodi.sourceforge.net/DTD/sodipodi-0.dtd" xmlns:svg="http://www.w3.org/2000/svg">
	
		<sodipodi:namedview  bordercolor="#666666" borderopacity="1.0" id="base" inkscape:current-layer="layer3" inkscape:cx="-133.6799" inkscape:cy="7.2709709" inkscape:document-units="px" inkscape:pageopacity="0.0" inkscape:pageshadow="2" inkscape:snap-bbox="true" inkscape:snap-global="false" inkscape:window-height="1800" inkscape:window-maximized="0" inkscape:window-width="3200" inkscape:window-x="0" inkscape:window-y="0" inkscape:zoom="5.6" pagecolor="#ffffff" showgrid="true" showguides="false" units="in">
		<inkscape:grid  id="grid4712" originx="-9.9771178" originy="-29.820954" type="xygrid"></inkscape:grid>
	</sodipodi:namedview>
	<g id="layer3" transform="translate(-3.5328446,2.2636422)" inkscape:groupmode="layer" inkscape:label="Home">
		<g id="g69" transform="translate(-8.330339,-11.885381)">
			<path id="path4720" inkscape:connector-curvature="0" class="st2" d="M34.8,60.7l-5.3-5.9l5.3,0c2.9,0,7.7,0,10.5,0l5.3,0
				l-5.1,5.9c-2.8,3.3-5.2,5.9-5.2,5.9C40.2,66.7,37.7,64,34.8,60.7z"/>
			<path id="path4722" inkscape:connector-curvature="0" class="st2" d="M20.2,44.3V37h19.3h19.3v7.2v7.2H39.5H20.2V44.3z"/>
			
				<path id="path4178" sodipodi:argument="-18.248306" sodipodi:cx="-30" sodipodi:cy="39" sodipodi:expansion="1" sodipodi:radius="15.811388" sodipodi:revolution="3.1031001" sodipodi:t0="0" sodipodi:type="spiral" class="st3" d="
				M48.9,40.1c-0.6-0.4-0.9,0.7-0.7,1.1c0.5,1.1,2,1,2.8,0.3c1.4-1.2,1.1-3.4-0.1-4.6c-1.8-1.8-4.8-1.3-6.3,0.5
				c-2.1,2.4-1.5,6.1,0.9,8.1c3,2.5,7.5,1.7,9.9-1.3c2.9-3.6,1.9-8.9-1.7-11.6c-4.2-3.2-10.3-2.1-13.4,2.1
				c-3.6,4.8-2.3,11.7,2.5,15.1c5.4,4,13,2.4,16.9-2.9c4.3-5.9,2.6-14.4-3.2-18.7c-6.5-4.7-15.8-2.8-20.4,3.6c-2,2.7-3,6.1-2.9,9.5"
				/>
			<path id="path4180" inkscape:connector-curvature="0" class="st3" d="M33.2,41.1v10"/>
			<path id="rect4168-1" inkscape:connector-curvature="0" sodipodi:nodetypes="ccccc" class="st4" d="M27.6,53.4h12.3
				c0,2.7,2.8,5.3,0,8.1H27.6C25.1,58.7,27.6,56.1,27.6,53.4z"/>
			<path id="path4710-2" inkscape:connector-curvature="0" sodipodi:nodetypes="ccc" class="st5" d="M29.8,64.1l3.8,5.3l3.6-5.3
				H29.8z"/>
			<path id="path4216" inkscape:connector-curvature="0" sodipodi:nodetypes="cc" class="st6" d="M23.6,32.6
				c0-9.7,7.8-17.5,17.5-17.5"/>
			<path id="path4710-2-1" inkscape:connector-curvature="0" sodipodi:nodetypes="ccc" class="st7" d="M18.4,33.6l4.9,7.2l5.4-7
				L18.4,33.6z"/>
		</g>
	</g>
</g>
</svg>
