<?xml version="1.0" standalone="no"?>
<!DOCTYPE svg PUBLIC "-//W3C//DTD SVG 20010904//EN"
 "http://www.w3.org/TR/2001/REC-SVG-20010904/DTD/svg10.dtd">
<svg version="1.0" xmlns="http://www.w3.org/2000/svg"
 width="1280.000000pt" height="1280.000000pt" viewBox="0 0 1280.000000 1280.000000"
 preserveAspectRatio="xMidYMid meet">
<metadata>
Created by potrace 1.15, written by Peter Selinger 2001-2017
</metadata>
<g transform="translate(0.000000,1280.000000) scale(0.100000,-0.100000)"
fill="#000000" stroke="none">
<path d="M6265 9803 c-145 -52 -247 -158 -291 -302 -11 -38 -14 -267 -14
-1399 0 -1337 0 -1353 20 -1413 24 -69 38 -95 92 -160 21 -26 38 -52 38 -57 0
-19 113 -104 177 -133 146 -67 322 -55 446 30 101 69 173 182 196 306 8 40 11
460 11 1354 0 1434 3 1360 -65 1491 -20 36 -59 88 -87 116 -29 27 -45 40 -37
29 7 -11 -8 2 -36 28 -27 26 -83 65 -124 85 -68 34 -82 37 -175 40 -77 2 -113
-2 -151 -15z"/>
<path d="M5005 9526 c-1015 -446 -1757 -1381 -1969 -2481 -76 -394 -78 -863
-6 -1262 68 -373 216 -776 403 -1098 22 -38 40 -75 40 -82 0 -7 3 -10 7 -8 3
2 15 -10 25 -27 13 -22 14 -29 4 -24 -8 4 -3 -2 11 -14 14 -12 19 -19 12 -15
-11 6 -12 3 -4 -11 13 -23 47 -65 36 -45 -4 9 -3 12 4 7 6 -4 9 -13 6 -20 -3
-7 3 -19 12 -27 15 -12 17 -12 9 0 -5 9 -4 12 3 7 6 -4 9 -13 6 -20 -3 -8 0
-17 7 -22 8 -5 10 -3 4 7 -5 8 -4 11 1 6 5 -5 9 -16 9 -25 0 -9 5 -17 12 -17
6 0 15 -4 20 -9 5 -5 3 -6 -4 -2 -7 4 -13 3 -13 -2 0 -15 26 -33 35 -24 5 4 5
1 1 -6 -15 -26 265 -348 442 -509 545 -493 1165 -788 1880 -894 177 -26 590
-37 782 -20 823 73 1580 430 2157 1018 559 568 899 1303 974 2106 17 185 6
612 -20 787 -116 778 -450 1442 -1000 1990 -169 167 -383 346 -403 334 -7 -4
-10 -4 -6 1 4 4 3 14 -3 22 -14 16 -33 18 -23 1 4 -7 3 -8 -5 -4 -6 4 -9 11
-6 16 6 10 -43 43 -54 36 -5 -3 -15 2 -22 12 -12 15 -12 16 1 7 9 -5 6 -1 -7
10 -31 28 -88 61 -78 46 5 -9 2 -9 -13 0 -12 7 -18 17 -16 21 3 5 2 8 -3 7
-21 -4 -34 2 -27 13 4 7 3 8 -4 4 -15 -9 -55 18 -44 29 4 5 2 5 -5 1 -6 -3
-35 8 -64 25 -107 63 -417 209 -444 209 -3 0 -5 -219 -5 -487 l0 -488 45 -28
c25 -16 43 -33 40 -37 -10 -16 50 -73 182 -172 236 -176 456 -405 603 -628 34
-52 66 -94 71 -93 4 2 5 -5 2 -14 -4 -11 -3 -14 5 -9 7 4 10 2 7 -6 -3 -7 9
-35 25 -63 16 -27 30 -45 30 -40 0 6 5 2 11 -8 5 -9 7 -22 3 -29 -4 -6 -3 -8
4 -4 13 8 26 -29 16 -45 -4 -7 -3 -9 3 -6 11 7 22 -13 60 -113 254 -664 221
-1404 -92 -2031 -127 -255 -258 -439 -454 -642 -389 -401 -868 -652 -1419
-742 -440 -72 -911 -20 -1333 146 -71 28 -126 55 -123 60 3 5 -3 6 -12 2 -13
-5 -15 -3 -9 7 5 8 4 11 -3 7 -13 -9 -44 2 -37 13 3 4 -2 11 -11 14 -8 3 -12
2 -9 -4 3 -6 -1 -7 -9 -4 -9 3 -14 9 -11 14 7 11 -93 62 -107 54 -6 -4 -8 -3
-5 3 4 6 -30 33 -74 62 -183 120 -405 321 -543 492 -275 343 -449 736 -523
1184 -26 158 -26 593 0 750 110 666 441 1221 969 1627 194 148 221 172 241
205 29 50 39 193 35 527 -3 275 -5 315 -21 347 -20 39 -62 67 -71 46 -2 -7 -5
21 -5 61 -1 39 -4 72 -8 72 -5 -1 -62 -25 -128 -54z m3645 -1956 c6 -11 8 -20
6 -20 -3 0 -10 9 -16 20 -6 11 -8 20 -6 20 3 0 10 -9 16 -20z m-3425 -3410 c3
-6 -1 -7 -9 -4 -18 7 -21 14 -7 14 6 0 13 -4 16 -10z"/>
</g>
</svg>
